<svg width="1em" height="1em" viewBox="0 0 32 32" fill="none" xmlns="http://www.w3.org/2000/svg">
<path d="M25.3333 10.6667C26.0406 10.6667 26.7189 10.3857 27.219 9.88563C27.719 9.38553 28 8.70725 28 8.00001C28 7.29277 27.719 6.61449 27.219 6.11439C26.7189 5.61429 26.0406 5.33334 25.3333 5.33334H6.66667C5.95942 5.33334 5.28115 5.61429 4.78105 6.11439C4.28095 6.61449 4 7.29277 4 8.00001C4 8.70725 4.28095 9.38553 4.78105 9.88563C5.28115 10.3857 5.95942 10.6667 6.66667 10.6667M25.3333 10.6667H6.66667M25.3333 10.6667L25.3333 24C25.3333 24.7073 25.0524 25.3855 24.5523 25.8856C24.0522 26.3857 23.3739 26.6667 22.6667 26.6667H9.33333C8.62609 26.6667 7.94781 26.3857 7.44771 25.8856C6.94762 25.3855 6.66667 24.7073 6.66667 24L6.66667 10.6667M13.3333 16H18.6667" stroke="currentColor" stroke-linecap="round" stroke-linejoin="round"/>
</svg>
