<svg width="250" height="200" viewBox="0 0 250 200" fill="none" xmlns="http://www.w3.org/2000/svg">
<path fill-rule="evenodd" clip-rule="evenodd" d="M63 134H154C154.515 134 155.017 133.944 155.5 133.839C155.983 133.944 156.485 134 157 134H209C212.866 134 216 130.866 216 127C216 123.134 212.866 120 209 120H203C199.134 120 196 116.866 196 113C196 109.134 199.134 106 203 106H222C225.866 106 229 102.866 229 99C229 95.134 225.866 92 222 92H200C203.866 92 207 88.866 207 85C207 81.134 203.866 78 200 78H136C139.866 78 143 74.866 143 71C143 67.134 139.866 64 136 64H79C75.134 64 72 67.134 72 71C72 74.866 75.134 78 79 78H39C35.134 78 32 81.134 32 85C32 88.866 35.134 92 39 92H64C67.866 92 71 95.134 71 99C71 102.866 67.866 106 64 106H24C20.134 106 17 109.134 17 113C17 116.866 20.134 120 24 120H63C59.134 120 56 123.134 56 127C56 130.866 59.134 134 63 134ZM226 134C229.866 134 233 130.866 233 127C233 123.134 229.866 120 226 120C222.134 120 219 123.134 219 127C219 130.866 222.134 134 226 134Z" fill="#DFFBD7"/>
<path d="M91.9207 65.7582L91.9208 65.7582C101.004 56.705 115.735 56.7049 124.819 65.7582L129.118 70.0426L130 70.922L130.882 70.0426L135.181 65.7582C144.266 56.7049 158.996 56.7049 168.081 65.7582C177.161 74.8092 177.161 89.4819 168.081 98.5328L129.967 136.516L91.9215 98.5335L91.9207 98.5328C82.8389 89.4818 82.8389 74.8091 91.9207 65.7582Z" fill="white" stroke="#35B449" stroke-width="2.5"/>
<path d="M93.9017 68.6244C85.3933 76.9497 86.4914 89.1748 94.9998 97.5001L128.5 130.5C123.871 118.235 118.134 92.9246 129.267 74.0987L123.774 68.6244C115.266 60.299 102.409 60.299 93.9017 68.6244Z" fill="#DFFBD7"/>
<path d="M162.744 95.2676L149.279 108.732" stroke="#89E886" stroke-width="2.5" stroke-linecap="round"/>
<path d="M146.631 111.38L146.113 111.898" stroke="#89E886" stroke-width="2.5" stroke-linecap="round"/>
</svg>
