<svg width="250" height="200" viewBox="0 0 250 200" fill="none" xmlns="http://www.w3.org/2000/svg">
<path fill-rule="evenodd" clip-rule="evenodd" d="M207 65C210.866 65 214 68.134 214 72C214 75.866 210.866 79 207 79H167C170.866 79 174 82.134 174 86C174 89.866 170.866 93 167 93H189C192.866 93 196 96.134 196 100C196 103.866 192.866 107 189 107H178.826C173.952 107 170 110.134 170 114C170 116.577 172 118.911 176 121C179.866 121 183 124.134 183 128C183 131.866 179.866 135 176 135H93C89.134 135 86 131.866 86 128C86 124.134 89.134 121 93 121H54C50.134 121 47 117.866 47 114C47 110.134 50.134 107 54 107H94C97.866 107 101 103.866 101 100C101 96.134 97.866 93 94 93H69C65.134 93 62 89.866 62 86C62 82.134 65.134 79 69 79H109C105.134 79 102 75.866 102 72C102 68.134 105.134 65 109 65H207ZM207 93C210.866 93 214 96.134 214 100C214 103.866 210.866 107 207 107C203.134 107 200 103.866 200 100C200 96.134 203.134 93 207 93Z" fill="#DFFBD7"/>
<path d="M128.979 54.1351C130.105 52.3912 132.626 52.3912 133.752 54.1351L188.354 138.698C189.608 140.639 188.214 143.173 185.968 143.173H76.763C74.517 143.173 73.1231 140.639 74.3764 138.698L128.979 54.1351Z" fill="white" stroke="#35B449" stroke-width="2.5"/>
<path d="M84.0608 137.938H178.256C179.324 137.938 179.64 136.512 178.667 136.074C153.475 124.729 124.074 114.738 131.579 66.1786C131.747 65.0934 130.264 64.5001 129.663 65.419L83.224 136.39C82.7888 137.055 83.266 137.938 84.0608 137.938Z" fill="#DFFBD7"/>
<circle cx="131.365" cy="122.577" r="4.21154" fill="white" stroke="#35B449" stroke-width="2.5"/>
<rect x="127.154" y="84.231" width="8.42308" height="28.9038" rx="4.21154" fill="white" stroke="#35B449" stroke-width="2.5"/>
<circle cx="169.596" cy="76.1536" r="2.73077" fill="#89E886"/>
<circle cx="77.4328" cy="100.048" r="4.89423" stroke="#89E886" stroke-width="2.5"/>
<path d="M91.769 55.6729L102.692 66.5959M102.692 55.6729L91.769 66.5959" stroke="#89E886" stroke-width="2.5" stroke-miterlimit="10" stroke-linecap="round"/>
<path d="M176.423 98L181.884 103.462M181.884 98L176.423 103.462" stroke="#89E886" stroke-width="2.5" stroke-miterlimit="10" stroke-linecap="round"/>
</svg>
