<svg width="1em" height="1em" viewBox="0 0 44 44" fill="none">
  <path fill-rule="evenodd" clip-rule="evenodd" d="M24.6319 31.5636C24.6668 32.3198 24.081 32.9618 23.3213 32.9999H20.6797C19.9201 32.9618 19.3343 32.3198 19.3692 31.5636V28.7743C15.6447 27.4142 13.5315 23.4963 14.4504 19.6554C15.3694 15.8145 19.0301 13.2649 22.9708 13.7212C26.9115 14.1775 29.8862 17.4953 29.8946 21.4436C29.8841 24.752 27.7733 27.6923 24.6319 28.7743V31.5636Z" stroke="#35B449" stroke-width="1.5" stroke-linecap="round" stroke-linejoin="round"/>
  <path d="M24.6326 29.5245C25.0468 29.5245 25.3826 29.1887 25.3826 28.7745C25.3826 28.3603 25.0468 28.0245 24.6326 28.0245V29.5245ZM19.3683 28.0245C18.9541 28.0245 18.6183 28.3603 18.6183 28.7745C18.6183 29.1887 18.9541 29.5245 19.3683 29.5245V28.0245ZM36.9997 22.1937C37.414 22.1937 37.7497 21.8579 37.7497 21.4437C37.7497 21.0295 37.414 20.6937 36.9997 20.6937V22.1937ZM33.8418 20.6937C33.4276 20.6937 33.0918 21.0295 33.0918 21.4437C33.0918 21.8579 33.4276 22.1937 33.8418 22.1937V20.6937ZM10.1579 22.1936C10.5721 22.1936 10.9079 21.8578 10.9079 21.4436C10.9079 21.0294 10.5721 20.6936 10.1579 20.6936V22.1936ZM6.99997 20.6936C6.58576 20.6936 6.24997 21.0294 6.24997 21.4436C6.24997 21.8578 6.58576 22.1936 6.99997 22.1936V20.6936ZM33.134 11.535C33.4295 11.2447 33.4336 10.7698 33.1433 10.4743C32.853 10.1789 32.3781 10.1747 32.0827 10.465L33.134 11.535ZM29.8437 12.665C29.5483 12.9553 29.5441 13.4302 29.8344 13.7256C30.1247 14.0211 30.5996 14.0253 30.895 13.735L29.8437 12.665ZM14.1574 30.2232C14.4524 29.9325 14.4559 29.4576 14.1652 29.1626C13.8745 28.8675 13.3996 28.864 13.1046 29.1547L14.1574 30.2232ZM10.8719 31.3547C10.5769 31.6455 10.5734 32.1203 10.8641 32.4154C11.1548 32.7104 11.6297 32.7139 11.9247 32.4232L10.8719 31.3547ZM32.0862 32.4232C32.3812 32.7139 32.8561 32.7104 33.1468 32.4154C33.4376 32.1203 33.4341 31.6455 33.139 31.3547L32.0862 32.4232ZM30.9063 29.1547C30.6113 28.864 30.1364 28.8675 29.8457 29.1626C29.555 29.4576 29.5585 29.9325 29.8535 30.2232L30.9063 29.1547ZM13.106 13.735C13.4014 14.0253 13.8763 14.0211 14.1666 13.7256C14.4569 13.4302 14.4527 12.9553 14.1573 12.665L13.106 13.735ZM11.9183 10.465C11.6229 10.1747 11.148 10.1789 10.8577 10.4743C10.5674 10.7698 10.5716 11.2447 10.867 11.535L11.9183 10.465ZM24.6326 28.0245H19.3683V29.5245H24.6326V28.0245ZM36.9997 20.6937H33.8418V22.1937H36.9997V20.6937ZM10.1579 20.6936H6.99997V22.1936H10.1579V20.6936ZM32.0827 10.465L29.8437 12.665L30.895 13.735L33.134 11.535L32.0827 10.465ZM13.1046 29.1547L10.8719 31.3547L11.9247 32.4232L14.1574 30.2232L13.1046 29.1547ZM33.139 31.3547L30.9063 29.1547L29.8535 30.2232L32.0862 32.4232L33.139 31.3547ZM14.1573 12.665L11.9183 10.465L10.867 11.535L13.106 13.735L14.1573 12.665Z" fill="#35B449"/>
</svg>