<svg width="1em" height="1em" viewBox="0 0 32 32" fill="none" xmlns="http://www.w3.org/2000/svg">
<path d="M21.3333 4V9.33333M10.6667 4V9.33333M5.33334 14.6667H26.6667M5.33334 9.33333C5.33334 8.62609 5.61429 7.94781 6.11438 7.44772C6.61448 6.94762 7.29276 6.66667 8 6.66667H24C24.7072 6.66667 25.3855 6.94762 25.8856 7.44772C26.3857 7.94781 26.6667 8.62609 26.6667 9.33333V25.3333C26.6667 26.0406 26.3857 26.7189 25.8856 27.219C25.3855 27.719 24.7072 28 24 28H8C7.29276 28 6.61448 27.719 6.11438 27.219C5.61429 26.7189 5.33334 26.0406 5.33334 25.3333V9.33333Z" stroke="currentColor" stroke-linecap="round" stroke-linejoin="round"/>
</svg>
