<svg width="1em" height="1em" viewBox="0 0 32 32" fill="none" xmlns="http://www.w3.org/2000/svg">
<path d="M7.99999 22.6667C6.52724 22.6667 5.33333 23.8606 5.33333 25.3333C5.33333 26.8061 6.52724 28 7.99999 28C9.47275 28 10.6667 26.8061 10.6667 25.3333C10.6667 23.8606 9.47275 22.6667 7.99999 22.6667ZM7.99999 22.6667H22.6667M7.99999 22.6667V4H5.33333M22.6667 22.6667C21.1939 22.6667 20 23.8606 20 25.3333C20 26.8061 21.1939 28 22.6667 28C24.1394 28 25.3333 26.8061 25.3333 25.3333C25.3333 23.8606 24.1394 22.6667 22.6667 22.6667ZM7.99999 6.66667L26.6667 8L25.3333 17.3333H7.99999" stroke="currentColor" stroke-linecap="round" stroke-linejoin="round"/>
</svg>
