<svg  width="1em" height="1em" viewBox="0 0 44 44" fill="none">
  <path fill-rule="evenodd" clip-rule="evenodd" d="M11.2882 19.7988C12.469 19.8331 13.4084 20.8001 13.4084 21.9814C13.4084 23.1627 12.469 24.1298 11.2882 24.164C10.1074 24.1298 9.16797 23.1627 9.16797 21.9814C9.16797 20.8001 10.1074 19.8331 11.2882 19.7988V19.7988Z" stroke="#35B449" stroke-width="1.5" stroke-linecap="round" stroke-linejoin="round"/>
  <path fill-rule="evenodd" clip-rule="evenodd" d="M32.6768 24.1623C31.7897 24.1802 30.98 23.6595 30.6282 22.8449C30.2764 22.0303 30.4526 21.0839 31.0738 20.4504C31.6951 19.8169 32.6379 19.6223 33.4592 19.9581C34.2804 20.2939 34.8168 21.0933 34.8163 21.9806C34.8275 23.1737 33.8698 24.1502 32.6768 24.1623V24.1623Z" stroke="#35B449" stroke-width="1.5" stroke-linecap="round" stroke-linejoin="round"/>
  <path fill-rule="evenodd" clip-rule="evenodd" d="M19.8012 32.6743C19.7833 31.7872 20.3041 30.9775 21.1186 30.6258C21.9332 30.274 22.8796 30.4501 23.5131 31.0714C24.1466 31.6926 24.3412 32.6354 24.0054 33.4567C23.6696 34.278 22.8702 34.8144 21.9829 34.8138C20.7898 34.825 19.8133 33.8674 19.8012 32.6743V32.6743Z" stroke="#35B449" stroke-width="1.5" stroke-linecap="round" stroke-linejoin="round"/>
  <path fill-rule="evenodd" clip-rule="evenodd" d="M24.164 11.2867C24.1298 12.4675 23.1627 13.407 21.9814 13.407C20.8001 13.407 19.8331 12.4675 19.7988 11.2867C19.8331 10.106 20.8001 9.1665 21.9814 9.1665C23.1627 9.1665 24.1298 10.106 24.164 11.2867Z" stroke="#35B449" stroke-width="1.5" stroke-linecap="round" stroke-linejoin="round"/>
  <path fill-rule="evenodd" clip-rule="evenodd" d="M24.8342 21.9806C24.8342 23.5561 23.5571 24.8333 21.9816 24.8333C20.4061 24.8333 19.1289 23.5561 19.1289 21.9806C19.1289 20.4051 20.4061 19.1279 21.9816 19.1279C23.5571 19.1279 24.8342 20.4051 24.8342 21.9806V21.9806Z" stroke="#35B449" stroke-width="1.5" stroke-linecap="round" stroke-linejoin="round"/>
  <path d="M10.5704 19.5844C10.4519 19.9813 10.6777 20.3991 11.0746 20.5175C11.4716 20.6359 11.8893 20.4101 12.0078 20.0132L10.5704 19.5844ZM13.7103 16.7427C13.9675 16.418 13.9128 15.9463 13.5881 15.6891C13.2635 15.4319 12.7917 15.4866 12.5345 15.8112L13.7103 16.7427ZM12.0078 23.9459C11.8893 23.5489 11.4716 23.3232 11.0746 23.4416C10.6777 23.56 10.4519 23.9778 10.5704 24.3747L12.0078 23.9459ZM12.5345 28.1479C12.7917 28.4725 13.2635 28.5272 13.5881 28.27C13.9128 28.0128 13.9675 27.5411 13.7103 27.2164L12.5345 28.1479ZM33.3958 24.3765C33.5142 23.9796 33.2884 23.5618 32.8915 23.4434C32.4946 23.325 32.0768 23.5508 31.9584 23.9477L33.3958 24.3765ZM30.2559 27.2182C29.9987 27.5429 30.0533 28.0146 30.378 28.2718C30.7027 28.529 31.1744 28.4743 31.4316 28.1497L30.2559 27.2182ZM31.9584 20.0151C32.0768 20.412 32.4946 20.6378 32.8915 20.5193C33.2884 20.4009 33.5142 19.9831 33.3958 19.5862L31.9584 20.0151ZM31.4316 15.8131C31.1744 15.4884 30.7027 15.4337 30.378 15.6909C30.0533 15.9481 29.9987 16.4199 30.2559 16.7445L31.4316 15.8131ZM19.5868 33.393C19.9837 33.5114 20.4015 33.2856 20.5199 32.8887C20.6383 32.4918 20.4126 32.074 20.0157 31.9556L19.5868 33.393ZM16.7451 30.2531C16.4205 29.9959 15.9487 30.0506 15.6915 30.3752C15.4343 30.6999 15.489 31.1716 15.8137 31.4288L16.7451 30.2531ZM23.9487 31.9556C23.5517 32.074 23.326 32.4918 23.4444 32.8887C23.5628 33.2856 23.9806 33.5114 24.3775 33.393L23.9487 31.9556ZM28.1506 31.4288C28.4753 31.1716 28.53 30.6999 28.2728 30.3752C28.0156 30.0505 27.5439 29.9959 27.2192 30.2531L28.1506 31.4288ZM24.3795 10.5679C23.9825 10.4495 23.5648 10.6753 23.4463 11.0722C23.3279 11.4691 23.5537 11.8869 23.9506 12.0053L24.3795 10.5679ZM27.2211 13.7078C27.5458 13.965 28.0175 13.9104 28.2747 13.5857C28.532 13.261 28.4773 12.7893 28.1526 12.5321L27.2211 13.7078ZM20.0175 12.0053C20.4144 11.8869 20.6402 11.4691 20.5218 11.0722C20.4033 10.6753 19.9856 10.4495 19.5886 10.5679L20.0175 12.0053ZM15.8155 12.5321C15.4908 12.7893 15.4361 13.261 15.6934 13.5857C15.9506 13.9104 16.4223 13.965 16.747 13.7078L15.8155 12.5321ZM12.0078 20.0132C12.3623 18.8248 12.9401 17.7148 13.7103 16.7427L12.5345 15.8112C11.646 16.9327 10.9794 18.2133 10.5704 19.5844L12.0078 20.0132ZM10.5704 24.3747C10.9794 25.7458 11.646 27.0263 12.5345 28.1479L13.7103 27.2164C12.9401 26.2443 12.3623 25.1343 12.0078 23.9459L10.5704 24.3747ZM31.9584 23.9477C31.6038 25.1361 31.026 26.2461 30.2559 27.2182L31.4316 28.1497C32.3201 27.0282 32.9867 25.7476 33.3958 24.3765L31.9584 23.9477ZM33.3958 19.5862C32.9867 18.2151 32.3201 16.9346 31.4316 15.8131L30.2559 16.7445C31.026 17.7166 31.6038 18.8266 31.9584 20.0151L33.3958 19.5862ZM20.0157 31.9556C18.8272 31.601 17.7172 31.0232 16.7451 30.2531L15.8137 31.4288C16.9352 32.3173 18.2157 32.9839 19.5868 33.393L20.0157 31.9556ZM24.3775 33.393C25.7486 32.9839 27.0291 32.3173 28.1506 31.4288L27.2192 30.2531C26.2471 31.0232 25.1371 31.601 23.9487 31.9556L24.3775 33.393ZM23.9506 12.0053C25.1391 12.3599 26.249 12.9377 27.2211 13.7078L28.1526 12.5321C27.0311 11.6436 25.7505 10.977 24.3795 10.5679L23.9506 12.0053ZM19.5886 10.5679C18.2176 10.977 16.937 11.6436 15.8155 12.5321L16.747 13.7078C17.7191 12.9377 18.829 12.3599 20.0175 12.0053L19.5886 10.5679Z" fill="#35B449"/>
</svg>