<svg width="1em" height="1em" viewBox="0 0 32 32" fill="none" xmlns="http://www.w3.org/2000/svg">
<path d="M21.3333 10.6666V7.99998C21.3333 7.29274 21.0524 6.61446 20.5523 6.11436C20.0522 5.61426 19.3739 5.33331 18.6667 5.33331H8C7.29276 5.33331 6.61448 5.61426 6.11438 6.11436C5.61429 6.61446 5.33334 7.29274 5.33334 7.99998V18.6666C5.33334 19.3739 5.61429 20.0522 6.11438 20.5523C6.61448 21.0524 7.29276 21.3333 8 21.3333H10.6667M10.6667 13.3333C10.6667 12.6261 10.9476 11.9478 11.4477 11.4477C11.9478 10.9476 12.6261 10.6666 13.3333 10.6666H24C24.7072 10.6666 25.3855 10.9476 25.8856 11.4477C26.3857 11.9478 26.6667 12.6261 26.6667 13.3333V24C26.6667 24.7072 26.3857 25.3855 25.8856 25.8856C25.3855 26.3857 24.7072 26.6666 24 26.6666H13.3333C12.6261 26.6666 11.9478 26.3857 11.4477 25.8856C10.9476 25.3855 10.6667 24.7072 10.6667 24V13.3333Z" stroke="currentColor" stroke-linecap="round" stroke-linejoin="round"/>
</svg>
