<svg width="1em" height="1em" viewBox="0 0 32 32" fill="none" xmlns="http://www.w3.org/2000/svg">
<path d="M4 13.3333H28M9.33333 20H9.34667M14.6667 20H17.3333M4 10.6667C4 9.60579 4.42143 8.58837 5.17157 7.83823C5.92172 7.08808 6.93914 6.66666 8 6.66666H24C25.0609 6.66666 26.0783 7.08808 26.8284 7.83823C27.5786 8.58837 28 9.60579 28 10.6667V21.3333C28 22.3942 27.5786 23.4116 26.8284 24.1617C26.0783 24.9119 25.0609 25.3333 24 25.3333H8C6.93914 25.3333 5.92172 24.9119 5.17157 24.1617C4.42143 23.4116 4 22.3942 4 21.3333V10.6667Z" stroke="currentColor" stroke-linecap="round" stroke-linejoin="round"/>
</svg>
