<svg width="1em" height="1em" viewBox="0 0 32 32" fill="none" xmlns="http://www.w3.org/2000/svg">
<path d="M5.33334 9.33333H26.6667M13.3333 14.6667V22.6667M18.6667 14.6667V22.6667M6.66667 9.33333L8 25.3333C8 26.0406 8.28095 26.7189 8.78105 27.219C9.28115 27.719 9.95943 28 10.6667 28H21.3333C22.0406 28 22.7189 27.719 23.219 27.219C23.7191 26.7189 24 26.0406 24 25.3333L25.3333 9.33333M12 9.33333V5.33333C12 4.97971 12.1405 4.64057 12.3905 4.39052C12.6406 4.14048 12.9797 4 13.3333 4H18.6667C19.0203 4 19.3594 4.14048 19.6095 4.39052C19.8595 4.64057 20 4.97971 20 5.33333V9.33333" stroke="currentColor" stroke-linecap="round" stroke-linejoin="round"/>
</svg>
