<svg width="1em" height="1em" viewBox="0 0 32 32" fill="none" xmlns="http://www.w3.org/2000/svg">
<g clip-path="url(#clip0_5978_68948)">
<path d="M6.66667 19.5833V23.3673L11.2533 19.5833H6.66667Z" fill="#00247D"/>
<path d="M24.5868 8.58334H18.889V13.2803L24.5868 8.58334Z" fill="#00247D"/>
<path d="M8.74684 25.0832H14.4446V20.3862L8.74684 25.0832Z" fill="#00247D"/>
<path d="M6.66667 10.2993V14.0833H11.2533L6.66667 10.2993Z" fill="#00247D"/>
<path d="M14.4446 8.58334H8.74684L14.4446 13.2803V8.58334Z" fill="#00247D"/>
<path d="M26.667 23.3673V19.5833H22.0803L26.667 23.3673Z" fill="#00247D"/>
<path d="M26.667 14.0833V10.2993L22.0803 14.0833H26.667Z" fill="#00247D"/>
<path d="M18.889 25.0832H24.5868L18.889 20.3862V25.0832Z" fill="#00247D"/>
<path d="M14.4444 14.0833V13.2803L8.74667 8.58334H6.66667L13.3333 14.0833H14.4444Z" fill="white"/>
<path d="M11.9467 14.0833L6.66667 9.72733V10.2993L11.2533 14.0833H11.9467Z" fill="white"/>
<path d="M18.889 19.5833V20.3863L24.5868 25.0833H26.6668L20.0001 19.5833H18.889Z" fill="white"/>
<path d="M14.4445 19.8088L8.05338 25.0833H8.74671L14.4445 20.3863V19.8088Z" fill="white"/>
<path d="M11.2533 19.5833L6.66667 23.3673V25.0833L13.3333 19.5833H11.2533Z" fill="white"/>
<path d="M21.3865 19.5833L26.6665 23.9393V23.3673L22.0798 19.5833H21.3865Z" fill="white"/>
<path d="M22.0802 14.0833L26.6668 10.2993V8.58334L20.0002 14.0833H22.0802Z" fill="white"/>
<path d="M18.889 13.8578L25.2801 8.58334H24.5868L18.889 13.2803V13.8578Z" fill="white"/>
<path d="M13.3333 14.0833L6.66667 8.58334V9.72734L11.9467 14.0833H13.3333Z" fill="#CF142B"/>
<path d="M21.3868 19.5833H20.0002L26.6668 25.0833V23.9393L21.3868 19.5833Z" fill="#CF142B"/>
<path d="M14.4444 19.5833H13.3333L6.66667 25.0833H8.05334L14.4444 19.8088V19.5833Z" fill="#CF142B"/>
<path d="M18.889 14.0833H20.0001L26.6668 8.58334H25.2801L18.889 13.8578V14.0833Z" fill="#CF142B"/>
<path d="M17.9998 15.1833H26.6665V14.0833H22.0798H19.9998H18.8887V13.8578V13.2803V8.58334H17.9998V15.1833Z" fill="white"/>
<path d="M18.8887 19.5834H19.9998H21.3865H22.0798H26.6665V18.4834H17.9998V25.0834H18.8887V20.3864V19.5834Z" fill="white"/>
<path d="M15.3333 18.4834H6.66667V19.5834H11.2533H13.3333H14.4444V19.8089V20.3864V25.0834H15.3333V18.4834Z" fill="white"/>
<path d="M15.3333 15.1833V8.58334H14.4444V13.2803V14.0833H13.3333H11.9467H11.2533H6.66667V15.1833H15.3333Z" fill="white"/>
<path d="M18 18.4833H26.6667V16.8333V15.1833H18V8.58334H16.6667H15.3333V15.1833H6.66667V16.8333V18.4833H15.3333V25.0833H16.6667H18V18.4833Z" fill="#CF142B"/>
</g>
<defs>
<clipPath id="clip0_5978_68948">
<rect x="6.66667" y="9.33334" width="20" height="15" rx="1" fill="white"/>
</clipPath>
</defs>
</svg>
