<svg width="1em" height="1em" viewBox="0 0 32 32" fill="none" xmlns="http://www.w3.org/2000/svg">
<path d="M16 25.3333C10.6667 25.3333 6.22266 22.2227 2.66666 16C6.22266 9.77734 10.6667 6.66667 16 6.66667C21.3333 6.66667 25.7773 9.77734 29.3333 16C28.7733 16.9813 28.1893 17.8853 27.5853 18.7107M20 25.3333L22.6667 28L28 22.6667M18.6667 16C18.6667 17.4728 17.4728 18.6667 16 18.6667C14.5272 18.6667 13.3333 17.4728 13.3333 16C13.3333 14.5272 14.5272 13.3333 16 13.3333C17.4728 13.3333 18.6667 14.5272 18.6667 16Z" stroke="currentColor" stroke-linecap="round" stroke-linejoin="round"/>
</svg>
