<svg width="1em" height="1em" viewBox="0 0 32 32" fill="none" xmlns="http://www.w3.org/2000/svg">
<path d="M4 4L28 28M14.112 14.116C13.6116 14.616 13.3304 15.2943 13.3301 16.0017C13.3299 16.7091 13.6106 17.3876 14.1107 17.888C14.6107 18.3884 15.289 18.6696 15.9964 18.6699C16.7038 18.6701 17.3823 18.3894 17.8827 17.8893M12.484 7.15333C13.6272 6.8263 14.8109 6.66245 16 6.66667C21.3333 6.66667 25.7773 9.77733 29.3333 16C28.296 17.8147 27.184 19.3653 25.996 20.6507M23.1427 23.132C20.968 24.5987 18.5893 25.3333 16 25.3333C10.6667 25.3333 6.22267 22.2227 2.66667 16C4.492 12.8067 6.55067 10.4333 8.84267 8.87867" stroke="currentColor" stroke-linecap="round" stroke-linejoin="round"/>
</svg>
