<svg  width="1em" height="1em" viewBox="0 0 44 44" fill="none">
<path fill-rule="evenodd" clip-rule="evenodd" d="M7 21.9998C7.00052 17.5963 12.0557 13.8062 19.074 12.9474C26.0923 12.0886 33.1191 14.4003 35.8571 18.4687C38.595 22.5371 36.2816 27.2291 30.3317 29.6754C24.3817 32.1216 16.4522 31.6408 11.3926 28.5269C8.5798 26.7957 6.99971 24.4478 7 21.9998Z" stroke="#35B449" stroke-width="1.5" stroke-linecap="round" stroke-linejoin="round"/>
<path fill-rule="evenodd" clip-rule="evenodd" d="M15.0762 21.9998C15.0764 18.6971 17.4096 15.8546 20.6488 15.2105C23.888 14.5664 27.1311 16.3002 28.3948 19.3515C29.6585 22.4028 28.5908 25.9218 25.8446 27.7565C23.0985 29.5912 19.4387 29.2305 17.1035 26.8951C15.8053 25.5967 15.076 23.8358 15.0762 21.9998Z" stroke="#35B449" stroke-width="1.5" stroke-linecap="round" stroke-linejoin="round"/>
</svg>