<svg width="1em" height="1em" viewBox="0 0 32 32" fill="none" xmlns="http://www.w3.org/2000/svg">
<path d="M13.3333 16C13.3333 16.7072 13.6143 17.3855 14.1144 17.8856C14.6145 18.3857 15.2928 18.6667 16 18.6667C16.7072 18.6667 17.3855 18.3857 17.8856 17.8856C18.3857 17.3855 18.6667 16.7072 18.6667 16C18.6667 15.2928 18.3857 14.6145 17.8856 14.1144C17.3855 13.6143 16.7072 13.3333 16 13.3333C15.2928 13.3333 14.6145 13.6143 14.1144 14.1144C13.6143 14.6145 13.3333 15.2928 13.3333 16Z" stroke="currentColor" stroke-linecap="round" stroke-linejoin="round"/>
<path d="M28 16C24.8 21.3333 20.8 24 16 24C11.2 24 7.2 21.3333 4 16C7.2 10.6667 11.2 8 16 8C20.8 8 24.8 10.6667 28 16Z" stroke="currentColor" stroke-linecap="round" stroke-linejoin="round"/>
</svg>
