<svg width="1em" height="1em" viewBox="0 0 32 32" fill="none" xmlns="http://www.w3.org/2000/svg">
<path d="M7.33334 6.66667H24.6667C24.8587 6.73402 25.0328 6.84442 25.1755 6.98942C25.3183 7.13443 25.426 7.31019 25.4903 7.50323C25.5547 7.69628 25.574 7.9015 25.5468 8.10316C25.5196 8.30482 25.4466 8.49758 25.3333 8.66667L18.6667 16V25.3333L13.3333 21.3333V16L6.66667 8.66667C6.55346 8.49758 6.48045 8.30482 6.45324 8.10316C6.42603 7.9015 6.44534 7.69628 6.50969 7.50323C6.57404 7.31019 6.68172 7.13443 6.82449 6.98942C6.96725 6.84442 7.14132 6.73402 7.33334 6.66667Z" stroke="currentColor" stroke-linecap="round" stroke-linejoin="round"/>
</svg>
