<svg width="1em" height="1em" viewBox="0 0 32 32" fill="none" xmlns="http://www.w3.org/2000/svg">
<path d="M11.9508 17.4309L11.4445 19.3025L9.594 19.3413C9.04097 18.3256 8.72728 17.1635 8.72728 15.9286C8.72728 14.7344 9.02057 13.6083 9.54045 12.6167H9.54085L11.1883 12.9158L11.91 14.5373C11.759 14.9734 11.6766 15.4415 11.6766 15.9286C11.6767 16.4572 11.7734 16.9637 11.9508 17.4309Z" fill="#FBBB00"/>
<path d="M23.1456 14.5834C23.2291 15.019 23.2726 15.4689 23.2726 15.9287C23.2726 16.4442 23.2179 16.9472 23.1136 17.4323C22.7596 19.083 21.8345 20.5245 20.553 21.5445L20.5526 21.5441L18.4775 21.4393L18.1838 19.6239C19.0342 19.1301 19.6987 18.3574 20.0488 17.4323H16.1599V14.5834H20.1055H23.1456Z" fill="#518EF8"/>
<path d="M20.5525 21.5439L20.5529 21.5443C19.3066 22.5363 17.7234 23.1298 16 23.1298C13.2304 23.1298 10.8224 21.597 9.59406 19.3412L11.9509 17.4309C12.565 19.0539 14.1462 20.2093 16 20.2093C16.7967 20.2093 17.5432 19.996 18.1837 19.6237L20.5525 21.5439Z" fill="#28B446"/>
<path d="M20.6419 10.3851L18.2858 12.2951C17.6229 11.8848 16.8393 11.6477 15.9998 11.6477C14.1041 11.6477 12.4933 12.8561 11.9099 14.5374L9.5407 12.6168H9.5403C10.7507 10.306 13.189 8.72726 15.9998 8.72726C17.7644 8.72726 19.3823 9.34967 20.6419 10.3851Z" fill="#F14336"/>
</svg>
