<svg width="1em" height="1em" viewBox="0 0 32 32" fill="none" xmlns="http://www.w3.org/2000/svg">
<path d="M10.6667 6.66666C10.6667 7.02028 10.8071 7.35942 11.0572 7.60947C11.3072 7.85952 11.6464 7.99999 12 7.99999C12.3536 7.99999 12.6928 7.85952 12.9428 7.60947C13.1929 7.35942 13.3333 7.02028 13.3333 6.66666C13.3333 6.31304 13.1929 5.9739 12.9428 5.72385C12.6928 5.4738 12.3536 5.33333 12 5.33333C11.6464 5.33333 11.3072 5.4738 11.0572 5.72385C10.8071 5.9739 10.6667 6.31304 10.6667 6.66666Z" stroke="currentColor" stroke-linecap="round" stroke-linejoin="round"/>
<path d="M10.6667 16C10.6667 16.3536 10.8071 16.6928 11.0572 16.9428C11.3072 17.1929 11.6464 17.3333 12 17.3333C12.3536 17.3333 12.6928 17.1929 12.9428 16.9428C13.1929 16.6928 13.3333 16.3536 13.3333 16C13.3333 15.6464 13.1929 15.3072 12.9428 15.0572C12.6928 14.8071 12.3536 14.6667 12 14.6667C11.6464 14.6667 11.3072 14.8071 11.0572 15.0572C10.8071 15.3072 10.6667 15.6464 10.6667 16Z" stroke="currentColor" stroke-linecap="round" stroke-linejoin="round"/>
<path d="M10.6667 25.3333C10.6667 25.687 10.8071 26.0261 11.0572 26.2761C11.3072 26.5262 11.6464 26.6667 12 26.6667C12.3536 26.6667 12.6928 26.5262 12.9428 26.2761C13.1929 26.0261 13.3333 25.687 13.3333 25.3333C13.3333 24.9797 13.1929 24.6406 12.9428 24.3905C12.6928 24.1405 12.3536 24 12 24C11.6464 24 11.3072 24.1405 11.0572 24.3905C10.8071 24.6406 10.6667 24.9797 10.6667 25.3333Z" stroke="currentColor" stroke-linecap="round" stroke-linejoin="round"/>
<path d="M18.6667 6.66666C18.6667 7.02028 18.8071 7.35942 19.0572 7.60947C19.3072 7.85952 19.6464 7.99999 20 7.99999C20.3536 7.99999 20.6928 7.85952 20.9428 7.60947C21.1929 7.35942 21.3333 7.02028 21.3333 6.66666C21.3333 6.31304 21.1929 5.9739 20.9428 5.72385C20.6928 5.4738 20.3536 5.33333 20 5.33333C19.6464 5.33333 19.3072 5.4738 19.0572 5.72385C18.8071 5.9739 18.6667 6.31304 18.6667 6.66666Z" stroke="currentColor" stroke-linecap="round" stroke-linejoin="round"/>
<path d="M18.6667 16C18.6667 16.3536 18.8071 16.6928 19.0572 16.9428C19.3072 17.1929 19.6464 17.3333 20 17.3333C20.3536 17.3333 20.6928 17.1929 20.9428 16.9428C21.1929 16.6928 21.3333 16.3536 21.3333 16C21.3333 15.6464 21.1929 15.3072 20.9428 15.0572C20.6928 14.8071 20.3536 14.6667 20 14.6667C19.6464 14.6667 19.3072 14.8071 19.0572 15.0572C18.8071 15.3072 18.6667 15.6464 18.6667 16Z" stroke="currentColor" stroke-linecap="round" stroke-linejoin="round"/>
<path d="M18.6667 25.3333C18.6667 25.687 18.8071 26.0261 19.0572 26.2761C19.3072 26.5262 19.6464 26.6667 20 26.6667C20.3536 26.6667 20.6928 26.5262 20.9428 26.2761C21.1929 26.0261 21.3333 25.687 21.3333 25.3333C21.3333 24.9797 21.1929 24.6406 20.9428 24.3905C20.6928 24.1405 20.3536 24 20 24C19.6464 24 19.3072 24.1405 19.0572 24.3905C18.8071 24.6406 18.6667 24.9797 18.6667 25.3333Z" stroke="currentColor" stroke-linecap="round" stroke-linejoin="round"/>
</svg>
