<svg width="1em" height="1em" viewBox="0 0 900 346" fill="none" xmlns="http://www.w3.org/2000/svg">
<path d="M-65.9864 283.52L-66.1806 284.685H-65H94.0079L85.5661 334.851L85.3699 336.017H86.5522H171.961H172.808L172.947 335.181L181.337 284.685H218.197H219.044L219.183 283.849L230.743 214.551L230.937 213.386H229.756H193.183L227.532 6.65546L227.725 5.49156H226.545H177.637H176.456H143.063H142.215H113.523H113.044L112.744 5.86538L-54.2206 213.76L-54.3843 213.964L-54.4273 214.222L-65.9864 283.52ZM107.931 213.386H35.8174L36.096 212.273L125.564 99.8893H126.648L107.931 213.386ZM311.595 324.285L311.598 324.287C331.391 338.12 356.382 345 386.503 345C416.416 345 443.4 338.117 467.43 324.336C491.563 310.556 511.641 290.702 527.667 264.801C543.803 238.897 554.865 207.808 560.875 171.559L560.875 171.559C566.884 135.212 566.095 104.355 558.438 79.0307C550.781 53.6002 537.116 34.2005 517.423 20.902C497.739 7.61021 472.914 1 443.014 1C413.107 1 386.128 7.61231 362.099 20.855L362.097 20.8559C338.176 34.0986 318.151 53.4176 302.016 78.7822L302.014 78.7848C285.983 104.156 274.867 134.979 268.642 171.226C262.418 207.364 263.047 238.432 270.594 264.394C278.141 290.357 291.801 310.343 311.595 324.285ZM439.328 246.825L439.328 246.826C427.252 262.702 413.712 270.493 398.704 270.493C388.686 270.493 380.387 267.064 373.735 260.21C367.089 253.363 362.646 242.689 360.521 228.038C358.401 213.424 359.242 194.609 363.086 171.56C368.748 137.939 377.808 113.488 390.172 98.0713C402.675 82.5089 416.434 74.8649 431.454 74.8649C441.477 74.8649 449.721 78.2438 456.263 84.988L456.268 84.9936C462.801 91.6242 467.137 102.025 469.155 116.353L469.155 116.354C471.168 130.54 470.275 148.82 466.43 171.227L466.43 171.228C460.554 205.711 451.492 230.868 439.328 246.825ZM467.416 171.396C471.269 148.938 472.179 130.544 470.145 116.214L362.1 171.396C358.247 194.495 357.391 213.424 359.531 228.182C361.672 242.94 366.167 253.848 373.017 260.906C379.867 267.964 388.429 271.493 398.704 271.493C414.116 271.493 427.923 263.473 440.124 247.432C452.432 231.283 461.529 205.938 467.416 171.396ZM576.258 283.52L576.063 284.685H577.244H736.252L727.81 334.851L727.614 336.017H728.796H814.205H815.052L815.191 335.181L823.581 284.685H860.441H861.288L861.427 283.849L872.986 214.551L873.181 213.386H872H835.427L869.776 6.65546L869.969 5.49156H868.789H819.881H818.7H785.307H784.458H755.767H755.288L754.988 5.86538L588.023 213.76L587.86 213.964L587.817 214.222L576.258 283.52ZM750.175 213.386H678.061L678.34 212.273L767.808 99.8893H768.892L750.175 213.386Z" stroke="white" stroke-width="2"/>
<path opacity="0.2" d="M-40.9864 283.52L-41.1806 284.685H-40H119.008L110.566 334.851L110.37 336.017H111.552H196.961H197.808L197.947 335.181L206.337 284.685H243.197H244.044L244.183 283.849L255.743 214.551L255.937 213.386H254.756H218.183L252.532 6.65546L252.725 5.49156H251.545H202.637H201.456H168.063H167.215H138.523H138.044L137.744 5.86538L-29.2206 213.76L-29.3843 213.964L-29.4273 214.222L-40.9864 283.52ZM132.931 213.386H60.8174L61.096 212.273L150.564 99.8893H151.648L132.931 213.386ZM336.595 324.285L336.598 324.287C356.391 338.12 381.382 345 411.503 345C441.416 345 468.4 338.117 492.43 324.336C516.563 310.556 536.641 290.702 552.667 264.801C568.803 238.897 579.865 207.808 585.875 171.559L585.875 171.559C591.884 135.212 591.095 104.355 583.438 79.0307C575.781 53.6002 562.116 34.2005 542.423 20.902C522.739 7.61021 497.914 1 468.014 1C438.107 1 411.128 7.61231 387.099 20.855L387.097 20.8559C363.176 34.0986 343.151 53.4176 327.016 78.7822L327.014 78.7848C310.983 104.156 299.867 134.979 293.642 171.226C287.418 207.364 288.047 238.432 295.594 264.394C303.141 290.357 316.801 310.343 336.595 324.285ZM464.328 246.825L464.328 246.826C452.252 262.702 438.712 270.493 423.704 270.493C413.686 270.493 405.387 267.064 398.735 260.21C392.089 253.363 387.646 242.689 385.521 228.038C383.401 213.424 384.242 194.609 388.086 171.56C393.748 137.939 402.808 113.488 415.172 98.0713C427.675 82.5089 441.434 74.8649 456.454 74.8649C466.477 74.8649 474.721 78.2438 481.263 84.988L481.268 84.9936C487.801 91.6242 492.137 102.025 494.155 116.353L494.155 116.354C496.168 130.54 495.275 148.82 491.43 171.227L491.43 171.228C485.554 205.711 476.492 230.868 464.328 246.825ZM492.416 171.396C496.269 148.938 497.179 130.544 495.145 116.214L387.1 171.396C383.247 194.495 382.391 213.424 384.531 228.182C386.672 242.94 391.167 253.848 398.017 260.906C404.867 267.964 413.429 271.493 423.704 271.493C439.116 271.493 452.923 263.473 465.124 247.432C477.432 231.283 486.529 205.938 492.416 171.396ZM601.258 283.52L601.063 284.685H602.244H761.252L752.81 334.851L752.614 336.017H753.796H839.205H840.052L840.191 335.181L848.581 284.685H885.441H886.288L886.427 283.849L897.986 214.551L898.181 213.386H897H860.427L894.776 6.65546L894.969 5.49156H893.789H844.881H843.7H810.307H809.458H780.767H780.288L779.988 5.86538L613.023 213.76L612.86 213.964L612.817 214.222L601.258 283.52ZM775.175 213.386H703.061L703.34 212.273L792.808 99.8893H793.892L775.175 213.386Z" stroke="white" stroke-width="2"/>
</svg>
