<svg width="1em" height="1em" viewBox="0 0 32 32" fill="none" xmlns="http://www.w3.org/2000/svg">
<path d="M22 9.99998V10.0133M5.33334 10.6666C5.33334 9.25216 5.89524 7.8956 6.89543 6.89541C7.89563 5.89522 9.25218 5.33331 10.6667 5.33331H21.3333C22.7478 5.33331 24.1044 5.89522 25.1046 6.89541C26.1048 7.8956 26.6667 9.25216 26.6667 10.6666V21.3333C26.6667 22.7478 26.1048 24.1044 25.1046 25.1045C24.1044 26.1047 22.7478 26.6666 21.3333 26.6666H10.6667C9.25218 26.6666 7.89563 26.1047 6.89543 25.1045C5.89524 24.1044 5.33334 22.7478 5.33334 21.3333V10.6666ZM12 16C12 17.0608 12.4214 18.0783 13.1716 18.8284C13.9217 19.5786 14.9391 20 16 20C17.0609 20 18.0783 19.5786 18.8284 18.8284C19.5786 18.0783 20 17.0608 20 16C20 14.9391 19.5786 13.9217 18.8284 13.1716C18.0783 12.4214 17.0609 12 16 12C14.9391 12 13.9217 12.4214 13.1716 13.1716C12.4214 13.9217 12 14.9391 12 16Z" stroke="currentColor" stroke-linecap="round" stroke-linejoin="round"/>
</svg>
