<svg height="1em" viewBox="0 0 272 40" fill="none" >
<path d="M77.1087 5.61403V17.1311V28.6481H69.9832V5.61403C69.9832 5.61403 71.0158 7.48387 73.5459 7.48387C76.0761 7.48387 77.1087 5.61403 77.1087 5.61403Z" fill="white"/>
<path d="M95.607 5.36636C98.3294 5.36636 100.496 6.24699 102.107 8.00826C103.746 9.742 104.566 12.1362 104.566 15.1909V28.6481H97.4821V16.1404C97.4821 14.5992 97.0793 13.4021 96.2737 12.549C95.4681 11.6959 94.3846 11.2693 93.0234 11.2693C91.6622 11.2693 90.5788 11.6959 89.7732 12.549C88.9675 13.4021 88.5647 14.5992 88.5647 16.1404V28.6481H81.4391V5.61403H88.5647V8.66873C89.287 7.6505 90.2593 6.85242 91.4816 6.27451C92.7039 5.66907 94.0791 5.36636 95.607 5.36636Z" fill="white"/>
<path d="M121.644 22.6625V28.6481H118.018C115.435 28.6481 113.421 28.0289 111.976 26.7905C110.532 25.5246 109.809 23.4744 109.809 20.6398V11.4757H106.976V5.61403H109.809V0H116.935V5.61403H121.602V11.4757H116.935V20.7224C116.935 21.4104 117.102 21.9057 117.435 22.2085C117.768 22.5112 118.324 22.6625 119.102 22.6625H121.644Z" fill="white"/>
<path d="M146.698 16.7595C146.698 17.42 146.656 18.108 146.573 18.8235H130.446C130.557 20.2546 131.016 21.3553 131.821 22.1259C132.655 22.8689 133.669 23.2405 134.863 23.2405C136.641 23.2405 137.877 22.4974 138.572 21.0114H146.156C145.767 22.5249 145.059 23.8872 144.031 25.098C143.031 26.3089 141.767 27.2583 140.239 27.9463C138.711 28.6343 137.002 28.9783 135.113 28.9783C132.835 28.9783 130.807 28.4967 129.03 27.5335C127.252 26.5703 125.863 25.1944 124.863 23.4056C123.862 21.6168 123.362 19.5253 123.362 17.1311C123.362 14.7368 123.849 12.6453 124.821 10.8566C125.821 9.06777 127.21 7.69178 128.988 6.72859C130.766 5.76539 132.808 5.2838 135.113 5.2838C137.364 5.2838 139.364 5.75163 141.114 6.68731C142.864 7.62298 144.225 8.95769 145.198 10.6914C146.198 12.4252 146.698 14.4479 146.698 16.7595ZM139.405 14.902C139.405 13.6911 138.989 12.7279 138.155 12.0124C137.322 11.2969 136.28 10.9391 135.03 10.9391C133.835 10.9391 132.822 11.2831 131.988 11.9711C131.182 12.6591 130.682 13.636 130.488 14.902H139.405Z" fill="white"/>
<path d="M76.8859 3.3581C76.8859 5.21093 75.3833 6.71294 73.5297 6.71294C71.6762 6.71294 70.1736 5.21093 70.1736 3.3581C70.1736 1.50528 71.6762 0.00326538 73.5297 0.00326538C75.3833 0.00326538 76.8859 1.50528 76.8859 3.3581Z" fill="white"/>
<path fill-rule="evenodd" clip-rule="evenodd" d="M227.998 28.6481V22.6625H225.456C224.678 22.6625 224.122 22.5112 223.789 22.2085C223.456 21.9057 223.289 21.4104 223.289 20.7224V11.4757H227.956V5.61403H223.289V0H216.163V5.61403H213.33V11.4757H216.163V20.6398C216.163 23.4744 216.886 25.5246 218.33 26.7905C219.775 28.0289 221.789 28.6481 224.372 28.6481H227.998ZM156.277 6.27451C155.055 5.61403 153.624 5.2838 151.985 5.2838C150.068 5.2838 148.332 5.76539 146.776 6.72859C146.014 7.20068 145.328 7.77193 144.719 8.44236C145.177 8.9807 145.585 9.56961 145.944 10.2091C147.019 12.0702 147.556 14.2414 147.556 16.7229C147.556 17.4319 147.511 18.1704 147.422 18.9385C147.238 20.2616 146.984 21.2476 146.974 21.2862L146.974 21.2862L146.974 21.287C146.556 22.9117 145.795 24.374 144.69 25.6738C144.679 25.6882 144.667 25.7025 144.655 25.7168C145.28 26.4252 145.987 27.0307 146.776 27.5335C148.332 28.4967 150.068 28.9783 151.985 28.9783C153.624 28.9783 155.055 28.6481 156.277 27.9876C157.499 27.2996 158.458 26.419 159.152 25.3457V28.6068C159.152 30.4506 158.708 31.7853 157.819 32.6109C156.958 33.4641 155.791 33.8906 154.319 33.8906C153.096 33.8906 152.068 33.6292 151.235 33.1063C150.402 32.6109 149.874 31.9229 149.652 31.0423H142.609C142.915 33.7943 144.137 35.9684 146.276 37.5645C148.415 39.1882 151.207 40 154.652 40C157.236 40 159.389 39.4909 161.111 38.4727C162.861 37.4544 164.153 36.0784 164.986 34.3447C165.847 32.6385 166.278 30.7258 166.278 28.6068V5.61403H159.152V8.87513C158.486 7.80186 157.527 6.93498 156.277 6.27451ZM157.652 12.9618C158.652 13.98 159.152 15.3698 159.152 17.1311C159.152 18.8923 158.652 20.2821 157.652 21.3003C156.68 22.3185 155.485 22.8277 154.069 22.8277C152.652 22.8277 151.443 22.3185 150.443 21.3003C149.471 20.2546 148.985 18.851 148.985 17.0898C148.985 15.3285 149.471 13.9525 150.443 12.9618C151.443 11.9436 152.652 11.4345 154.069 11.4345C155.485 11.4345 156.68 11.9436 157.652 12.9618ZM180.85 6.48091C179.6 7.19642 178.559 8.18713 177.725 9.45304V5.61403H170.6V28.6481H177.725V17.9567C177.725 16.0578 178.17 14.7368 179.059 13.9938C179.948 13.2233 181.281 12.838 183.059 12.838H185.017V5.36636C183.49 5.36636 182.101 5.73787 180.85 6.48091ZM186.173 17.0898C186.173 14.7231 186.618 12.6453 187.507 10.8566C188.423 9.06777 189.659 7.69178 191.215 6.72859C192.771 5.76539 194.507 5.2838 196.424 5.2838C198.063 5.2838 199.494 5.61403 200.716 6.27451C201.966 6.93498 202.924 7.80186 203.591 8.87513V5.61403H210.717V28.6481H203.591V25.387C202.897 26.4603 201.924 27.3271 200.674 27.9876C199.452 28.6481 198.021 28.9783 196.382 28.9783C194.493 28.9783 192.771 28.4967 191.215 27.5335C189.659 26.5428 188.423 25.1531 187.507 23.3643C186.618 21.548 186.173 19.4565 186.173 17.0898ZM203.591 17.1311C203.591 15.3698 203.091 13.98 202.091 12.9618C201.119 11.9436 199.924 11.4345 198.507 11.4345C197.091 11.4345 195.882 11.9436 194.882 12.9618C193.91 13.9525 193.424 15.3285 193.424 17.0898C193.424 18.851 193.91 20.2546 194.882 21.3003C195.882 22.3185 197.091 22.8277 198.507 22.8277C199.924 22.8277 201.119 22.3185 202.091 21.3003C203.091 20.2821 203.591 18.8923 203.591 17.1311ZM241.718 28.9783C239.44 28.9783 237.384 28.4967 235.55 27.5335C233.745 26.5703 232.314 25.1944 231.258 23.4056C230.231 21.6168 229.717 19.5253 229.717 17.1311C229.717 14.7644 230.244 12.6866 231.3 10.8978C232.356 9.08153 233.8 7.69178 235.634 6.72859C237.467 5.76539 239.523 5.2838 241.801 5.2838C244.079 5.2838 246.135 5.76539 247.968 6.72859C249.802 7.69178 251.246 9.08153 252.302 10.8978C253.357 12.6866 253.885 14.7644 253.885 17.1311C253.885 19.4978 253.344 21.5893 252.26 23.4056C251.204 25.1944 249.746 26.5703 247.885 27.5335C246.051 28.4967 243.996 28.9783 241.718 28.9783ZM241.718 22.8689C243.079 22.8689 244.232 22.3736 245.176 21.3829C246.149 20.3922 246.635 18.9749 246.635 17.1311C246.635 15.2872 246.162 13.87 245.218 12.8793C244.301 11.8885 243.162 11.3932 241.801 11.3932C240.412 11.3932 239.259 11.8885 238.342 12.8793C237.426 13.8424 236.967 15.2597 236.967 17.1311C236.967 18.9749 237.412 20.3922 238.301 21.3829C239.217 22.3736 240.356 22.8689 241.718 22.8689ZM267.083 6.48091C265.833 7.19642 264.791 8.18713 263.958 9.45304V5.61403H256.832V28.6481H263.958V17.9567C263.958 16.0578 264.402 14.7368 265.291 13.9938C266.18 13.2233 267.514 12.838 269.291 12.838H271.25V5.36636C269.722 5.36636 268.333 5.73787 267.083 6.48091Z" fill="white"/>
<path d="M6.89941 5.85652V11.5138H16.139V16.7728H6.89941V22.9082H17.3494V28.3663H0V0.398402H17.3494V5.85652H6.89941Z" fill="#35B449"/>
<path d="M37.3623 14.0238C39.0031 14.3691 40.3211 15.1791 41.3164 16.454C42.3116 17.7024 42.8092 19.1366 42.8092 20.7568C42.8092 23.0941 41.9754 24.9533 40.3077 26.3344C38.6669 27.689 36.3671 28.3663 33.4083 28.3663H20.2147V0.398402H32.9645C35.8426 0.398402 38.0886 1.04913 39.7025 2.35057C41.3433 3.65202 42.1637 5.41828 42.1637 7.64933C42.1637 9.29606 41.7199 10.6639 40.8322 11.7529C39.9715 12.8418 38.8148 13.5988 37.3623 14.0238ZM27.1141 11.713H31.633C32.7627 11.713 33.6235 11.474 34.2152 10.9959C34.8339 10.4913 35.1432 9.76087 35.1432 8.8047C35.1432 7.84853 34.8339 7.11813 34.2152 6.61349C33.6235 6.10884 32.7627 5.85652 31.633 5.85652H27.1141V11.713ZM32.1979 22.8683C33.3545 22.8683 34.2421 22.616 34.8608 22.1114C35.5064 21.5801 35.8291 20.8232 35.8291 19.8405C35.8291 18.8577 35.4929 18.0875 34.8204 17.5297C34.1749 16.972 33.2738 16.6931 32.1172 16.6931H27.1141V22.8683H32.1979Z" fill="#35B449"/>
<path d="M55.4452 28.6452C53.3741 28.6452 51.5181 28.3132 49.8773 27.6492C48.2365 26.9851 46.9185 26.0024 45.9232 24.701C44.9549 23.3995 44.4438 21.8325 44.39 19.9998H51.7333C51.8409 21.0357 52.204 21.8325 52.8226 22.3902C53.4413 22.9214 54.2483 23.187 55.2435 23.187C56.2656 23.187 57.0726 22.9613 57.6643 22.5098C58.2561 22.0317 58.552 21.3809 58.552 20.5576C58.552 19.867 58.3099 19.296 57.8257 18.8444C57.3685 18.3929 56.7901 18.0211 56.0908 17.7289C55.4183 17.4368 54.45 17.1048 53.1858 16.7329C51.3567 16.1752 49.8638 15.6174 48.7072 15.0596C47.5506 14.5019 46.5553 13.6785 45.7215 12.5895C44.8877 11.5006 44.4707 10.0796 44.4707 8.32662C44.4707 5.72372 45.4256 3.69187 47.3354 2.23106C49.2452 0.743685 51.7333 0 54.7997 0C57.9199 0 60.4349 0.743685 62.3446 2.23106C64.2544 3.69187 65.2766 5.737 65.411 8.36646H57.9468C57.893 7.46341 57.5567 6.75957 56.9381 6.25492C56.3194 5.72372 55.5259 5.45812 54.5576 5.45812C53.7237 5.45812 53.0513 5.68388 52.5402 6.1354C52.0291 6.56036 51.7736 7.18453 51.7736 8.00789C51.7736 8.91094 52.204 9.61479 53.0647 10.1194C53.9255 10.6241 55.2704 11.1686 57.0995 11.7529C58.9286 12.3638 60.408 12.9481 61.5377 13.5059C62.6943 14.0636 63.6895 14.8737 64.5234 15.9361C65.3572 16.9985 65.7742 18.3664 65.7742 20.0397C65.7742 21.6333 65.3572 23.0808 64.5234 24.3822C63.7164 25.6837 62.5329 26.7195 60.9728 27.4898C59.4127 28.26 57.5702 28.6452 55.4452 28.6452Z" fill="#35B449"/>
</svg>
