<svg width="1em" height="1em" viewBox="0 0 24 24" fill="none" >
<path d="M11.9999 11.882L4.00293 7.884C4.03253 7.37444 4.25584 6.89549 4.62711 6.54523C4.99838 6.19497 5.48951 5.99991 5.99993 6H17.9999C18.5103 5.99991 19.0015 6.19497 19.3728 6.54523C19.744 6.89549 19.9673 7.37444 19.9969 7.884L11.9999 11.882Z" fill="#B0BABF"/>
<path d="M12 14.118L20 10.118V16C20 16.5304 19.7893 17.0391 19.4142 17.4142C19.0391 17.7893 18.5304 18 18 18H6C5.46957 18 4.96086 17.7893 4.58579 17.4142C4.21071 17.0391 4 16.5304 4 16V10.118L12 14.118Z" fill="#B0BABF"/>
</svg>
