<svg width="1em" height="1em" viewBox="0 0 32 32" fill="none" xmlns="http://www.w3.org/2000/svg">
<path fill-rule="evenodd" clip-rule="evenodd" d="M23.5427 22.2093L17.8853 27.8667C17.3853 28.3662 16.7074 28.6468 16.0007 28.6468C15.2939 28.6468 14.616 28.3662 14.116 27.8667L8.45733 22.2093C6.96563 20.7176 5.94978 18.8169 5.53825 16.7478C5.12672 14.6787 5.33799 12.534 6.14534 10.585C6.95269 8.63593 8.31986 6.97006 10.074 5.79802C11.8281 4.62597 13.8904 4.0004 16 4.0004C18.1096 4.0004 20.1719 4.62597 21.926 5.79802C23.6801 6.97006 25.0473 8.63593 25.8547 10.585C26.662 12.534 26.8733 14.6787 26.4618 16.7478C26.0502 18.8169 25.0344 20.7176 23.5427 22.2093ZM13.1716 17.4951C12.4214 16.745 12 15.7275 12 14.6667C12 13.6058 12.4214 12.5884 13.1716 11.8382C13.9217 11.0881 14.9391 10.6667 16 10.6667C17.0609 10.6667 18.0783 11.0881 18.8284 11.8382C19.5786 12.5884 20 13.6058 20 14.6667C20 15.7275 19.5786 16.745 18.8284 17.4951C18.0783 18.2452 17.0609 18.6667 16 18.6667C14.9391 18.6667 13.9217 18.2452 13.1716 17.4951Z" stroke="currentColor" stroke-linecap="round" stroke-linejoin="round"/>
</svg>
