<svg width="1em" height="1em" viewBox="0 0 32 32" fill="none" xmlns="http://www.w3.org/2000/svg">
<path d="M31 16C31 20.975 26.8541 25 21.7296 25C19.5665 25 17.5837 24.275 16.0129 23.075C18.176 21.425 19.5408 18.875 19.5408 16C19.5408 13.125 18.1502 10.575 16.0129 8.925C17.5837 7.725 19.5665 7 21.7296 7C26.8541 7 31 11.05 31 16Z" fill="#F79E1B"/>
<path d="M16.0129 8.92499C16.0129 8.92499 16.0129 8.92499 16.0129 8.92499C18.1502 10.575 19.5408 13.125 19.5408 16C19.5408 18.875 18.176 21.425 16.0129 23.075L15.987 23.075C13.8498 21.45 12.4592 18.875 12.4592 16C12.4592 13.125 13.8498 10.575 15.9871 8.92504C15.9871 8.92502 15.9871 8.92506 15.9871 8.92504L16.0129 8.92499Z" fill="#FF5F00"/>
<path d="M12.4592 16.0001C12.4592 13.1251 13.8498 10.5751 15.9871 8.92512C14.4163 7.72512 12.4335 7.00012 10.2704 7.00012C5.14592 7.00012 1 11.0251 1 16.0001C1 20.9751 5.14592 25.0001 10.2704 25.0001C12.4335 25.0001 14.4163 24.2751 15.9871 23.0751C13.8498 21.4501 12.4592 18.8751 12.4592 16.0001Z" fill="#EB001B"/>
</svg>
