<svg width="1em" height="1em" viewBox="0 0 32 32" fill="none" xmlns="http://www.w3.org/2000/svg">
<path fill-rule="evenodd" clip-rule="evenodd" d="M24.2566 10.0977C24.2346 10.24 24.2091 10.3855 24.1807 10.535C23.2009 15.5861 19.8487 17.3311 15.5674 17.3311H13.3875C12.8639 17.3311 12.4226 17.7127 12.3411 18.2313L10.909 27.3527C10.8559 27.6933 11.1173 28 11.4594 28H15.3258C15.7835 28 16.1724 27.6661 16.2446 27.2128L16.2825 27.0156L17.0105 22.3773L17.0573 22.1229C17.1285 21.668 17.5183 21.3338 17.9761 21.3338H18.5543C22.3001 21.3338 25.2326 19.8069 26.0897 15.388C26.4476 13.5422 26.2623 12.0008 25.3149 10.9168C25.0283 10.59 24.6726 10.3186 24.2566 10.0977" fill="#298FC2"/>
<path fill-rule="evenodd" clip-rule="evenodd" d="M23.2312 9.68708C23.0814 9.64319 22.927 9.60354 22.7686 9.56767C22.6093 9.5327 22.4462 9.50173 22.2783 9.47455C21.6905 9.37921 21.0464 9.33398 20.3566 9.33398H14.5331C14.3896 9.33398 14.2533 9.36651 14.1315 9.42532C13.8628 9.55497 13.6634 9.81027 13.615 10.1228L12.3761 18.0014L12.3406 18.231C12.422 17.7124 12.8633 17.3308 13.3869 17.3308H15.5668C19.8481 17.3308 23.2004 15.585 24.1802 10.5347C24.2094 10.3852 24.2341 10.2398 24.256 10.0974C24.0082 9.96532 23.7397 9.85237 23.4506 9.75614C23.3792 9.7323 23.3055 9.70935 23.2312 9.68708" fill="#22284F"/>
<path fill-rule="evenodd" clip-rule="evenodd" d="M13.6153 10.1231C13.6636 9.81056 13.8631 9.55526 14.1318 9.4265C14.2545 9.36746 14.3898 9.33494 14.5334 9.33494H20.3569C21.0467 9.33494 21.6908 9.38038 22.2785 9.47573C22.4465 9.50269 22.6096 9.53387 22.7689 9.56885C22.9273 9.60449 23.0817 9.64437 23.2315 9.68803C23.3058 9.71031 23.3795 9.73348 23.4516 9.75642C23.7407 9.85266 24.0094 9.9665 24.2572 10.0977C24.5487 8.2311 24.2547 6.96019 23.2497 5.80935C22.1414 4.54223 20.1414 4 17.5821 4H10.1521C9.62933 4 9.18337 4.38161 9.1026 4.90111L6.00792 24.597C5.94691 24.9867 6.24621 25.3382 6.6376 25.3382H11.2246L13.6153 10.1231" fill="#28356A"/>
</svg>
