<svg width="1em" height="1em" viewBox="0 0 32 32" fill="none" xmlns="http://www.w3.org/2000/svg">
<path d="M10.6667 26.6667L16 14.6667M14.2667 18.6667C14.8493 20.3507 16.1733 21.3333 17.6667 21.3333C20.428 21.3333 22.6667 19.2613 22.6667 16C22.6678 15.0264 22.4557 14.0644 22.0453 13.1816C21.6348 12.2988 21.036 11.5166 20.2909 10.89C19.5458 10.2633 18.6725 9.80751 17.7324 9.55453C16.7922 9.30154 15.8081 9.25754 14.8492 9.4256C13.8902 9.59366 12.9797 9.96972 12.1816 10.5273C11.3836 11.085 10.7173 11.8106 10.2297 12.6533C9.74214 13.4959 9.44501 14.4351 9.35925 15.4049C9.2735 16.3747 9.40118 17.3515 9.73334 18.2667M4 16C4 17.5759 4.31039 19.1363 4.91345 20.5922C5.5165 22.0481 6.40042 23.371 7.51472 24.4853C8.62902 25.5996 9.95189 26.4835 11.4078 27.0866C12.8637 27.6896 14.4241 28 16 28C17.5759 28 19.1363 27.6896 20.5922 27.0866C22.0481 26.4835 23.371 25.5996 24.4853 24.4853C25.5996 23.371 26.4835 22.0481 27.0866 20.5922C27.6896 19.1363 28 17.5759 28 16C28 14.4241 27.6896 12.8637 27.0866 11.4078C26.4835 9.95189 25.5996 8.62902 24.4853 7.51472C23.371 6.40042 22.0481 5.5165 20.5922 4.91345C19.1363 4.31039 17.5759 4 16 4C14.4241 4 12.8637 4.31039 11.4078 4.91345C9.95189 5.5165 8.62902 6.40042 7.51472 7.51472C6.40042 8.62902 5.5165 9.95189 4.91345 11.4078C4.31039 12.8637 4 14.4241 4 16Z" stroke="currentColor" stroke-linecap="round" stroke-linejoin="round"/>
</svg>
