<svg width="1em" height="1em" viewBox="0 0 32 32" fill="none" xmlns="http://www.w3.org/2000/svg">
<path d="M28 14.6667V10.6667C28 9.95942 27.719 9.28115 27.219 8.78105C26.7189 8.28095 26.0406 8 25.3333 8H17.3333M17.3333 8L21.3333 12M17.3333 8L21.3333 4M4 17.3333V21.3333C4 22.0406 4.28095 22.7189 4.78105 23.219C5.28115 23.719 5.95942 24 6.66667 24H14.6667M14.6667 24L10.6667 20M14.6667 24L10.6667 28M5.33333 4H10.6667C11.403 4 12 4.59695 12 5.33333V10.6667C12 11.403 11.403 12 10.6667 12H5.33333C4.59695 12 4 11.403 4 10.6667V5.33333C4 4.59695 4.59695 4 5.33333 4ZM21.3333 20H26.6667C27.403 20 28 20.597 28 21.3333V26.6667C28 27.403 27.403 28 26.6667 28H21.3333C20.597 28 20 27.403 20 26.6667V21.3333C20 20.597 20.597 20 21.3333 20Z" stroke="currentColor" stroke-linecap="round" stroke-linejoin="round"/>
</svg>
