<svg width="1em" height="1em" viewBox="0 0 24 24" fill="none" xmlns="http://www.w3.org/2000/svg">
<path fill-rule="evenodd" clip-rule="evenodd" d="M7 4C7.26522 4 7.51957 4.10536 7.70711 4.29289C7.89464 4.48043 8 4.73478 8 5V6H9C9.26522 6 9.51957 6.10536 9.70711 6.29289C9.89464 6.48043 10 6.73478 10 7C10 7.26522 9.89464 7.51957 9.70711 7.70711C9.51957 7.89464 9.26522 8 9 8H8V9C8 9.26522 7.89464 9.51957 7.70711 9.70711C7.51957 9.89464 7.26522 10 7 10C6.73478 10 6.48043 9.89464 6.29289 9.70711C6.10536 9.51957 6 9.26522 6 9V8H5C4.73478 8 4.48043 7.89464 4.29289 7.70711C4.10536 7.51957 4 7.26522 4 7C4 6.73478 4.10536 6.48043 4.29289 6.29289C4.48043 6.10536 4.73478 6 5 6H6V5C6 4.73478 6.10536 4.48043 6.29289 4.29289C6.48043 4.10536 6.73478 4 7 4ZM7 14C7.26522 14 7.51957 14.1054 7.70711 14.2929C7.89464 14.4804 8 14.7348 8 15V16H9C9.26522 16 9.51957 16.1054 9.70711 16.2929C9.89464 16.4804 10 16.7348 10 17C10 17.2652 9.89464 17.5196 9.70711 17.7071C9.51957 17.8946 9.26522 18 9 18H8V19C8 19.2652 7.89464 19.5196 7.70711 19.7071C7.51957 19.8946 7.26522 20 7 20C6.73478 20 6.48043 19.8946 6.29289 19.7071C6.10536 19.5196 6 19.2652 6 19V18H5C4.73478 18 4.48043 17.8946 4.29289 17.7071C4.10536 17.5196 4 17.2652 4 17C4 16.7348 4.10536 16.4804 4.29289 16.2929C4.48043 16.1054 4.73478 16 5 16H6V15C6 14.7348 6.10536 14.4804 6.29289 14.2929C6.48043 14.1054 6.73478 14 7 14ZM14 4C14.2207 3.99993 14.4352 4.07286 14.6101 4.20744C14.785 4.34201 14.9105 4.53066 14.967 4.744L16.146 9.2L19.5 11.134C19.652 11.2218 19.7782 11.348 19.866 11.5C19.9538 11.652 20 11.8245 20 12C20 12.1755 19.9538 12.348 19.866 12.5C19.7782 12.652 19.652 12.7782 19.5 12.866L16.146 14.801L14.966 19.256C14.9094 19.4691 14.7839 19.6576 14.6091 19.792C14.4343 19.9264 14.22 19.9993 13.9995 19.9993C13.779 19.9993 13.5647 19.9264 13.3899 19.792C13.2151 19.6576 13.0896 19.4691 13.033 19.256L11.854 14.8L8.5 12.866C8.34799 12.7782 8.22177 12.652 8.13401 12.5C8.04625 12.348 8.00004 12.1755 8.00004 12C8.00004 11.8245 8.04625 11.652 8.13401 11.5C8.22177 11.348 8.34799 11.2218 8.5 11.134L11.854 9.199L13.034 4.744C13.0905 4.53083 13.2158 4.3423 13.3905 4.20774C13.5652 4.07318 13.7795 4.00015 14 4V4Z" fill="currentColor"/>
</svg>
