<svg width="1em" height="1em" viewBox="0 0 32 32" fill="none" xmlns="http://www.w3.org/2000/svg">
<path d="M11.3333 12.6667C12.0697 12.6667 12.6667 12.0697 12.6667 11.3333C12.6667 10.5969 12.0697 9.99999 11.3333 9.99999C10.5969 9.99999 9.99999 10.5969 9.99999 11.3333C9.99999 12.0697 10.5969 12.6667 11.3333 12.6667Z" stroke="currentColor" stroke-linecap="round" stroke-linejoin="round"/>
<path d="M5.33333 9.33333V14.4787C5.33333 15.1947 5.61733 15.8813 6.12399 16.388L16.9453 27.2093C17.1961 27.4601 17.4937 27.659 17.8213 27.7947C18.1489 27.9304 18.5001 28.0003 18.8547 28.0003C19.2093 28.0003 19.5604 27.9304 19.888 27.7947C20.2156 27.659 20.5133 27.4601 20.764 27.2093L27.2093 20.764C27.4601 20.5133 27.659 20.2156 27.7947 19.888C27.9304 19.5604 28.0003 19.2093 28.0003 18.8547C28.0003 18.5001 27.9304 18.1489 27.7947 17.8213C27.659 17.4937 27.4601 17.1961 27.2093 16.9453L16.3867 6.12399C15.8806 5.61799 15.1943 5.3336 14.4787 5.33333H9.33333C8.27246 5.33333 7.25505 5.75476 6.5049 6.5049C5.75476 7.25505 5.33333 8.27246 5.33333 9.33333Z" stroke="currentColor" stroke-linecap="round" stroke-linejoin="round"/>
</svg>
