<svg  width="1em" height="1em" viewBox="0 0 32 28" fill="none">
  <path d="M12.5375 14.1517C12.1778 14.3571 12.0526 14.8151 12.2579 15.1749C12.4632 15.5346 12.9213 15.6598 13.2811 15.4545L12.5375 14.1517ZM24.5231 9.0378C24.8828 8.83247 25.008 8.37439 24.8026 8.01465C24.5973 7.65491 24.1392 7.52974 23.7795 7.73507L24.5231 9.0378ZM13.1015 14.0781C12.7011 13.972 12.2905 14.2105 12.1843 14.6109C12.0782 15.0113 12.3167 15.4219 12.7171 15.5281L13.1015 14.0781ZM17.1501 16.7032C17.5505 16.8094 17.9611 16.5708 18.0672 16.1705C18.1734 15.7701 17.9348 15.3594 17.5345 15.2533L17.1501 16.7032ZM12.1857 14.6069C12.0773 15.0067 12.3136 15.4186 12.7134 15.5269C13.1132 15.6353 13.5251 15.399 13.6335 14.9992L12.1857 14.6069ZM14.8215 10.6157C14.9298 10.2159 14.6936 9.80402 14.2938 9.69567C13.894 9.58732 13.482 9.82358 13.3737 10.2234L14.8215 10.6157ZM24.3159 7.65473C23.9118 7.56379 23.5105 7.81767 23.4196 8.22178C23.3286 8.62588 23.5825 9.0272 23.9866 9.11814L24.3159 7.65473ZM30.5041 10.5848C30.9082 10.6757 31.3095 10.4219 31.4005 10.0178C31.4914 9.61365 31.2375 9.21234 30.8334 9.1214L30.5041 10.5848ZM23.4319 8.17436C23.3148 8.57167 23.5419 8.9887 23.9392 9.10583C24.3365 9.22295 24.7535 8.99582 24.8707 8.59851L23.4319 8.17436ZM26.7828 2.11218C26.9 1.71487 26.6728 1.29784 26.2755 1.18071C25.8782 1.06358 25.4612 1.29072 25.3441 1.68803L26.7828 2.11218ZM28.0436 14C28.0435 13.5858 27.7077 13.25 27.2935 13.2501C26.8793 13.2502 26.5435 13.586 26.5436 14.0002L28.0436 14ZM26.8518 17.3221L27.5753 17.5195L27.5757 17.5183L26.8518 17.3221ZM20.8018 25.1138L20.4312 24.4617L20.4304 24.4622L20.8018 25.1138ZM6.41011 24.1806L5.95685 24.7781L5.9577 24.7788L6.41011 24.1806ZM3.07344 20.4168L3.72101 20.0384L3.72066 20.0378L3.07344 20.4168ZM2.67194 8.31677L2.00143 7.98074L2.00103 7.98155L2.67194 8.31677ZM7.82361 2.88644L8.19446 3.53833L8.19504 3.538L7.82361 2.88644ZM20.4322 3.538C20.792 3.74314 21.25 3.61772 21.4552 3.25787C21.6603 2.89802 21.5349 2.44001 21.175 2.23487L20.4322 3.538ZM23.1765 14.0003C23.1766 13.5861 22.8409 13.2502 22.4267 13.2501C22.0125 13.25 21.6766 13.5857 21.6765 13.9999L23.1765 14.0003ZM22.1497 16.0754L22.8733 16.2726L22.8735 16.2718L22.1497 16.0754ZM18.3693 20.9466L17.9986 20.2946L17.998 20.295L18.3693 20.9466ZM9.37499 20.3636L8.92189 20.9612L8.92263 20.9618L9.37499 20.3636ZM7.28866 18.0114L7.93613 17.6329L7.93596 17.6326L7.28866 18.0114ZM7.03749 10.4526L6.3668 10.1169L6.36647 10.1176L7.03749 10.4526ZM10.2587 7.05358L10.6299 7.70528L10.63 7.70517L10.2587 7.05358ZM17.9998 7.70517C18.3596 7.91028 18.8176 7.78483 19.0227 7.42497C19.2279 7.06511 19.1024 6.6071 18.7425 6.40199L17.9998 7.70517ZM13.2811 15.4545L24.5231 9.0378L23.7795 7.73507L12.5375 14.1517L13.2811 15.4545ZM12.7171 15.5281L17.1501 16.7032L17.5345 15.2533L13.1015 14.0781L12.7171 15.5281ZM13.6335 14.9992L14.8215 10.6157L13.3737 10.2234L12.1857 14.6069L13.6335 14.9992ZM23.9866 9.11814L30.5041 10.5848L30.8334 9.1214L24.3159 7.65473L23.9866 9.11814ZM24.8707 8.59851L26.7828 2.11218L25.3441 1.68803L23.4319 8.17436L24.8707 8.59851ZM26.5436 14.0002C26.5438 15.0559 26.404 16.107 26.1279 17.1259L27.5757 17.5183C27.8865 16.3713 28.0438 15.1883 28.0436 14L26.5436 14.0002ZM26.1282 17.1247C25.2807 20.2307 23.2305 22.8711 20.4312 24.4617L21.1723 25.7658C24.3185 23.9781 26.6227 21.0105 27.5753 17.5195L26.1282 17.1247ZM20.4304 24.4622C16.1387 26.9081 10.8024 26.5621 6.86251 23.5824L5.9577 24.7788C10.376 28.1203 16.3603 28.5084 21.1731 25.7654L20.4304 24.4622ZM6.86337 23.5831C5.59313 22.6195 4.52532 21.415 3.72101 20.0384L2.42587 20.7951C3.32965 22.342 4.52952 23.6954 5.95685 24.7781L6.86337 23.5831ZM3.72066 20.0378C1.67863 16.5503 1.53651 12.2672 3.34286 8.65199L2.00103 7.98155C-0.0319301 12.0503 0.128018 16.8707 2.42623 20.7957L3.72066 20.0378ZM3.34245 8.6528C4.41848 6.5057 6.10697 4.72587 8.19446 3.53833L7.45276 2.23454C5.10742 3.56876 3.21036 5.56844 2.00143 7.98074L3.34245 8.6528ZM8.19504 3.538C11.9876 1.376 16.6396 1.376 20.4322 3.538L21.175 2.23487C16.922 -0.189618 11.7052 -0.189618 7.45218 2.23487L8.19504 3.538ZM21.6765 13.9999C21.6763 14.6346 21.592 15.2665 21.4258 15.879L22.8735 16.2718C23.0744 15.5313 23.1763 14.7675 23.1765 14.0003L21.6765 13.9999ZM21.4261 15.8782C20.9165 17.7476 19.6831 19.3369 17.9986 20.2946L18.74 21.5986C20.7713 20.4437 22.2588 18.5271 22.8733 16.2726L21.4261 15.8782ZM17.998 20.295C15.4135 21.7678 12.2001 21.5595 9.82735 19.7654L8.92263 20.9618C11.7738 23.1177 15.6351 23.368 18.7407 21.5982L17.998 20.295ZM9.82809 19.7659C9.06337 19.1862 8.42046 18.4613 7.93613 17.6329L6.64119 18.3899C7.22503 19.3886 8.00004 20.2624 8.92189 20.9612L9.82809 19.7659ZM7.93596 17.6326C6.70889 15.5358 6.62334 12.9612 7.70851 10.7876L6.36647 10.1176C5.05496 12.7446 5.15835 15.8561 6.64135 18.3902L7.93596 17.6326ZM7.70818 10.7883C8.3558 9.4943 9.37254 8.42143 10.6299 7.70528L9.88746 6.40188C8.37238 7.26485 7.14719 8.55768 6.3668 10.1169L7.70818 10.7883ZM10.63 7.70517C12.9141 6.40329 15.7157 6.40329 17.9998 7.70517L18.7425 6.40199C15.998 4.83768 12.6318 4.83768 9.88727 6.40199L10.63 7.70517Z" fill="#35B449"/>
</svg>