<svg width="1em" height="1em" viewBox="0 0 32 32" fill="none" xmlns="http://www.w3.org/2000/svg">
<path d="M6.66667 22.6667C6.66667 23.3739 6.94762 24.0522 7.44772 24.5523C7.94781 25.0524 8.62609 25.3334 9.33334 25.3334C10.0406 25.3334 10.7189 25.0524 11.219 24.5523C11.7191 24.0522 12 23.3739 12 22.6667M6.66667 22.6667C6.66667 21.9594 6.94762 21.2812 7.44772 20.7811C7.94781 20.281 8.62609 20 9.33334 20C10.0406 20 10.7189 20.281 11.219 20.7811C11.7191 21.2812 12 21.9594 12 22.6667M6.66667 22.6667H4V17.3334M12 22.6667H20M20 22.6667C20 23.3739 20.281 24.0522 20.7811 24.5523C21.2811 25.0524 21.9594 25.3334 22.6667 25.3334C23.3739 25.3334 24.0522 25.0524 24.5523 24.5523C25.0524 24.0522 25.3333 23.3739 25.3333 22.6667M20 22.6667C20 21.9594 20.281 21.2812 20.7811 20.7811C21.2811 20.281 21.9594 20 22.6667 20C23.3739 20 24.0522 20.281 24.5523 20.7811C25.0524 21.2812 25.3333 21.9594 25.3333 22.6667M25.3333 22.6667H28V14.6667M2.66667 6.66669H17.3333V22.6667M28 14.6667H17.3333M28 14.6667L24 8.00002H17.3333M4 12H9.33334" stroke="currentColor" stroke-linecap="round" stroke-linejoin="round"/>
</svg>
