<svg width="1em" height="1em" viewBox="0 0 32 32" fill="none" xmlns="http://www.w3.org/2000/svg">
<path d="M23.2637 11.4121C22.7524 11.2163 21.9414 11 20.9387 11C18.3788 11 16.5761 12.3181 16.565 14.2026C16.5438 15.5929 17.8557 16.3652 18.8369 16.8288C19.8398 17.3025 20.1807 17.6117 20.1807 18.0339C20.1705 18.6825 19.3703 18.9814 18.624 18.9814C17.5891 18.9814 17.0345 18.8273 16.1918 18.4665L15.8505 18.3118L15.4877 20.4848C16.0957 20.7523 17.2158 20.9896 18.3788 21C21.0987 21 22.8695 19.7023 22.8905 17.6941C22.9008 16.5921 22.2081 15.7477 20.7146 15.0578C19.8079 14.6148 19.2527 14.3162 19.2527 13.863C19.2633 13.451 19.7223 13.029 20.7457 13.029C21.5885 13.0083 22.2076 13.2039 22.6767 13.3997L22.9112 13.5025L23.2637 11.4121Z" fill="url(#paint0_linear_6290_88472)"/>
<path d="M13.8666 20.8557H11.2744L12.8958 11.1755H15.4879L13.8666 20.8557Z" fill="url(#paint1_linear_6290_88472)"/>
<path fill-rule="evenodd" clip-rule="evenodd" d="M29.9087 11.1755H27.9037C27.2853 11.1755 26.8156 11.3504 26.5488 11.9786L22.6984 20.8556H25.4183C25.4183 20.8556 25.8661 19.6608 25.9624 19.4035H29.2905C29.365 19.7434 29.5999 20.8556 29.5999 20.8556H32L29.9087 11.1755ZM26.709 17.4264C26.9224 16.8702 27.7439 14.7179 27.7439 14.7179C27.7396 14.7262 27.773 14.6368 27.8228 14.5034L27.8234 14.5018L27.8238 14.5007C27.8982 14.3015 28.0087 14.0059 28.085 13.7911L28.2661 14.6252C28.2661 14.6252 28.757 16.9424 28.8636 17.4264H26.709Z" fill="url(#paint2_linear_6290_88472)"/>
<path d="M9.10929 11.1755L6.57065 17.7765L6.29324 16.4377L6.29298 16.4369L5.38659 11.9892C5.23732 11.3709 4.77861 11.1959 4.2133 11.1755H0.0426673L0 11.3711C1.0172 11.6222 1.927 11.9842 2.72417 12.4342L5.03462 20.8455H7.77582L11.8504 11.1755H9.10929Z" fill="url(#paint3_linear_6290_88472)"/>
<defs>
<linearGradient id="paint0_linear_6290_88472" x1="-2.05714e-08" y1="16.021" x2="32" y2="16.021" gradientUnits="userSpaceOnUse">
<stop stop-color="#222357"/>
<stop offset="1" stop-color="#254AA5"/>
</linearGradient>
<linearGradient id="paint1_linear_6290_88472" x1="-2.05714e-08" y1="16.021" x2="32" y2="16.021" gradientUnits="userSpaceOnUse">
<stop stop-color="#222357"/>
<stop offset="1" stop-color="#254AA5"/>
</linearGradient>
<linearGradient id="paint2_linear_6290_88472" x1="-2.05714e-08" y1="16.021" x2="32" y2="16.021" gradientUnits="userSpaceOnUse">
<stop stop-color="#222357"/>
<stop offset="1" stop-color="#254AA5"/>
</linearGradient>
<linearGradient id="paint3_linear_6290_88472" x1="-2.05714e-08" y1="16.021" x2="32" y2="16.021" gradientUnits="userSpaceOnUse">
<stop stop-color="#222357"/>
<stop offset="1" stop-color="#254AA5"/>
</linearGradient>
</defs>
</svg>
